<?xml version="1.0" encoding="utf-8"?><svg xmlns="http://www.w3.org/2000/svg" xmlns:xlink="http://www.w3.org/1999/xlink"><symbol viewBox="0 0 54.757 54.757" id="address" xmlns="http://www.w3.org/2000/svg"><path d="M40.94 5.617A19.052 19.052 0 0 0 27.38 0a19.05 19.05 0 0 0-13.56 5.617c-6.703 6.702-7.536 19.312-1.804 26.952L27.38 54.757 42.721 32.6c5.755-7.671 4.922-20.281-1.781-26.983zM27.557 26c-3.859 0-7-3.141-7-7s3.141-7 7-7 7 3.141 7 7-3.141 7-7 7z"/></symbol><symbol viewBox="0 0 154.7 256.44" id="arrow" xmlns="http://www.w3.org/2000/svg"><g data-name="Слой 2"><path d="M154.7 131.13l-23.57 23.57L29.39 256.44 5.82 232.87l101.73-101.74L0 23.58 23.57 0l107.56 107.55 23.57 23.58z" data-name="Layer 1"/></g></symbol><symbol viewBox="0 0 10 20" id="fb" xmlns="http://www.w3.org/2000/svg"><defs><path id="ca" d="M3583.25 6991.874v-2.5c0-.69.56-1.25 1.25-1.25h1.25V6985h-2.5a3.75 3.75 0 0 0-3.75 3.75v3.125h-2.5V6995h2.5v10h3.75v-10h2.5l1.25-3.125z"/></defs><use xlink:href="#ca" transform="translate(-3577 -6985)"/></symbol><symbol viewBox="0 0 20 20" id="phone" xmlns="http://www.w3.org/2000/svg"><defs><path id="da" d="M2699 6373.92v3a2 2 0 0 1-2.18 2 19.792 19.792 0 0 1-8.63-3.07 19.507 19.507 0 0 1-6-6 19.792 19.792 0 0 1-3.07-8.67 2 2 0 0 1 1.99-2.18h3a2 2 0 0 1 2 1.72c.126.96.361 1.903.7 2.81a2 2 0 0 1-.45 2.11l-1.27 1.27a16.002 16.002 0 0 0 6 6l1.27-1.27a2 2 0 0 1 2.11-.45c.906.338 1.85.573 2.81.7a2 2 0 0 1 1.72 2.03z"/></defs><g transform="translate(-2679 -6359)"><use xlink:href="#da"/><use xlink:href="#da"/></g></symbol><symbol viewBox="0 0 17 20" id="play" xmlns="http://www.w3.org/2000/svg"><defs><path id="ea" d="M2857.136 3419.583l-13.398-8.386c-.396-.234-.888-.195-1.26-.195-1.485 0-1.479 1.14-1.479 1.428v17.139c0 .244-.006 1.428 1.48 1.428.371 0 .863.039 1.259-.195l13.398-8.385c1.1-.65.91-1.418.91-1.418s.19-.766-.91-1.416z"/></defs><use xlink:href="#ea" transform="translate(-2841 -3411)"/></symbol><symbol viewBox="0 0 20 16" id="tw" xmlns="http://www.w3.org/2000/svg"><defs><path id="fa" d="M3634 6988.894a8.647 8.647 0 0 1-2.363.637 4.025 4.025 0 0 0 1.804-2.231 8.266 8.266 0 0 1-2.6.977 4.139 4.139 0 0 0-2.995-1.277c-2.27 0-4.098 1.814-4.098 4.038 0 .32.028.627.096.92a11.666 11.666 0 0 1-8.452-4.222 4.015 4.015 0 0 0-.561 2.04c0 1.398.73 2.638 1.821 3.355a4.098 4.098 0 0 1-1.853-.497v.044c0 1.962 1.422 3.592 3.286 3.967-.334.09-.698.133-1.076.133-.262 0-.527-.015-.776-.069a4.132 4.132 0 0 0 3.831 2.812 8.32 8.32 0 0 1-5.083 1.722c-.337 0-.66-.014-.982-.055a11.673 11.673 0 0 0 6.29 1.812c7.545 0 11.67-6.154 11.67-11.488 0-.179-.006-.351-.015-.522a8.11 8.11 0 0 0 2.056-2.096z"/></defs><use xlink:href="#fa" transform="translate(-3614 -6987)"/></symbol></svg>